<svg width="240" height="60" viewBox="0 0 240 60" fill="none" xmlns="http://www.w3.org/2000/svg">
  <defs>
    <pattern id="strawPatternWhite" x="0" y="0" width="4" height="4" patternUnits="userSpaceOnUse" patternTransform="rotate(45)">
      <line x1="0" y1="2" x2="4" y2="2" stroke="#FFFFFF" stroke-width="0.5" opacity="0.3"/>
    </pattern>
  </defs>
  
  <!-- Icon Group -->
  <g id="icon">
    <!-- S-shaped straw main stroke -->
    <path d="M18 12 C18 12 18 22 25 22 L28 22 C35 22 35 28 35 28 L35 32 C35 32 35 38 42 38 L45 38" 
          stroke="#FFFFFF" stroke-width="3.5" stroke-linecap="round" stroke-linejoin="round" fill="none"/>
    <!-- Pattern overlay -->
    <path d="M18 12 C18 12 18 22 25 22 L28 22 C35 22 35 28 35 28 L35 32 C35 32 35 38 42 38 L45 38" 
          stroke="url(#strawPatternWhite)" stroke-width="3" stroke-linecap="round" stroke-linejoin="round" fill="none"/>
    <!-- Top opening -->
    <circle cx="18" cy="12" r="2.5" fill="#FFFFFF" opacity="0.9"/>
    <!-- Bottom opening with ellipse -->
    <ellipse cx="45" cy="38" rx="3" ry="1.5" fill="#FFFFFF" opacity="0.9"/>
    <!-- Highlight on curve -->
    <circle cx="30" cy="25" r="1" fill="#FFFFFF" opacity="0.5"/>
  </g>
  
  <!-- Wordmark using paths -->
  <g id="wordmark" transform="translate(65, 20)" fill="#FFFFFF">
    <!-- C -->
    <path d="M0 10 C0 4.5 4.5 0 10 0 L12 0 L12 3 L10 3 C6.1 3 3 6.1 3 10 C3 13.9 6.1 17 10 17 L12 17 L12 20 L10 20 C4.5 20 0 15.5 0 10 Z"/>
    
    <!-- l -->
    <rect x="16" y="0" width="3" height="20" rx="1.5"/>
    
    <!-- e -->
    <path d="M23 10 C23 6.1 26.1 3 30 3 C33.9 3 37 6.1 37 10 L37 11.5 L26 11.5 C26.5 14.2 28.1 16 30 16 L33 16 L33 19 L30 19 C25.6 19 23 15.4 23 10 Z M26 8.5 L34 8.5 C33.5 6.5 32 5 30 5 C28 5 26.5 6.5 26 8.5 Z"/>
    
    <!-- a -->
    <path d="M41 10 C41 6.1 44.1 3 48 3 C51.9 3 55 6.1 55 10 L55 20 L52 20 L52 17 C51 18.5 49.5 19 48 19 C44.1 19 41 15.9 41 10 Z M44 10 C44 13.9 46.1 16 48 16 C49.9 16 52 13.9 52 10 C52 6.1 49.9 4 48 4 C46.1 4 44 6.1 44 10 Z"/>
    
    <!-- n -->
    <path d="M59 3 L62 3 L62 6 C63 4 64.5 3 66.5 3 C69.5 3 71 5.5 71 8.5 L71 20 L68 20 L68 9 C68 6.5 67 5 65 5 C63 5 62 6.5 62 9 L62 20 L59 20 L59 3 Z"/>
    
    <!-- S -->
    <path d="M80 3 C76 3 73 5 73 8 C73 10.5 74.5 11.5 77 12 L80 12.5 C82 13 83 13.5 83 15 C83 16.5 81.5 17 80 17 L76 17 L76 20 L80 20 C84 20 86 18 86 15 C86 12.5 84.5 11.5 82 11 L79 10.5 C77 10 76 9.5 76 8 C76 6.5 77.5 6 80 6 L84 6 L84 3 L80 3 Z"/>
    
    <!-- i -->
    <rect x="90" y="3" width="3" height="17" rx="1.5"/>
    <circle cx="91.5" cy="-2" r="1.5"/>
    
    <!-- p -->
    <path d="M97 3 L100 3 L100 6 C101 4 102.5 3 104.5 3 C108.4 3 111 6.1 111 10 C111 13.9 108.4 17 104.5 17 C102.5 17 101 16 100 14 L100 25 L97 25 L97 3 Z M100 10 C100 13.9 102.1 16 104 16 C105.9 16 108 13.9 108 10 C108 6.1 105.9 4 104 4 C102.1 4 100 6.1 100 10 Z"/>
  </g>
</svg>